<mxfile host="app.diagrams.net" agent="Mozilla/5.0 (Windows NT 10.0; Win64; x64) AppleWebKit/537.36 (KHTML, like Gecko) Chrome/136.0.0.0 Safari/537.36 Edg/136.0.0.0" version="27.0.6">
  <diagram name="Page-1" id="0QCuR8ZD3URrl7LuQ2w0">
    <mxGraphModel dx="1627" dy="993" grid="1" gridSize="10" guides="1" tooltips="1" connect="1" arrows="1" fold="1" page="1" pageScale="1" pageWidth="827" pageHeight="1169" math="0" shadow="0">
      <root>
        <mxCell id="0" />
        <mxCell id="1" parent="0" />
        <mxCell id="AAj_URhUIHbUfAL2eGkG-8" style="edgeStyle=orthogonalEdgeStyle;rounded=0;orthogonalLoop=1;jettySize=auto;html=1;exitX=0.5;exitY=0;exitDx=0;exitDy=0;entryX=0.5;entryY=1;entryDx=0;entryDy=0;" edge="1" parent="1" source="AAj_URhUIHbUfAL2eGkG-2" target="AAj_URhUIHbUfAL2eGkG-4">
          <mxGeometry relative="1" as="geometry" />
        </mxCell>
        <mxCell id="AAj_URhUIHbUfAL2eGkG-2" value="API" style="rounded=1;whiteSpace=wrap;html=1;" vertex="1" parent="1">
          <mxGeometry x="190" y="540" width="280" height="60" as="geometry" />
        </mxCell>
        <mxCell id="AAj_URhUIHbUfAL2eGkG-3" value="MCP" style="rounded=1;whiteSpace=wrap;html=1;" vertex="1" parent="1">
          <mxGeometry x="500" y="270" width="210" height="180" as="geometry" />
        </mxCell>
        <mxCell id="AAj_URhUIHbUfAL2eGkG-10" style="edgeStyle=orthogonalEdgeStyle;rounded=0;orthogonalLoop=1;jettySize=auto;html=1;exitX=1;exitY=0.5;exitDx=0;exitDy=0;entryX=0;entryY=0.5;entryDx=0;entryDy=0;" edge="1" parent="1" source="AAj_URhUIHbUfAL2eGkG-4" target="AAj_URhUIHbUfAL2eGkG-3">
          <mxGeometry relative="1" as="geometry" />
        </mxCell>
        <mxCell id="AAj_URhUIHbUfAL2eGkG-4" value="IA" style="rhombus;whiteSpace=wrap;html=1;" vertex="1" parent="1">
          <mxGeometry x="250" y="280" width="160" height="160" as="geometry" />
        </mxCell>
        <mxCell id="AAj_URhUIHbUfAL2eGkG-5" value="Cloud Entreprise" style="ellipse;shape=cloud;whiteSpace=wrap;html=1;" vertex="1" parent="1">
          <mxGeometry x="100" y="20" width="330" height="190" as="geometry" />
        </mxCell>
        <mxCell id="AAj_URhUIHbUfAL2eGkG-6" value="DataBase" style="shape=cylinder3;whiteSpace=wrap;html=1;boundedLbl=1;backgroundOutline=1;size=15;" vertex="1" parent="1">
          <mxGeometry x="60" y="60" width="120" height="180" as="geometry" />
        </mxCell>
        <mxCell id="AAj_URhUIHbUfAL2eGkG-9" style="edgeStyle=orthogonalEdgeStyle;rounded=0;orthogonalLoop=1;jettySize=auto;html=1;exitX=0;exitY=0.5;exitDx=0;exitDy=0;entryX=0.5;entryY=1;entryDx=0;entryDy=0;entryPerimeter=0;" edge="1" parent="1" source="AAj_URhUIHbUfAL2eGkG-2" target="AAj_URhUIHbUfAL2eGkG-6">
          <mxGeometry relative="1" as="geometry" />
        </mxCell>
        <mxCell id="AAj_URhUIHbUfAL2eGkG-11" style="edgeStyle=orthogonalEdgeStyle;rounded=0;orthogonalLoop=1;jettySize=auto;html=1;exitX=0.5;exitY=0;exitDx=0;exitDy=0;entryX=0.96;entryY=0.7;entryDx=0;entryDy=0;entryPerimeter=0;" edge="1" parent="1" source="AAj_URhUIHbUfAL2eGkG-3" target="AAj_URhUIHbUfAL2eGkG-5">
          <mxGeometry relative="1" as="geometry">
            <Array as="points">
              <mxPoint x="605" y="153" />
            </Array>
          </mxGeometry>
        </mxCell>
        <mxCell id="AAj_URhUIHbUfAL2eGkG-14" style="edgeStyle=orthogonalEdgeStyle;rounded=0;orthogonalLoop=1;jettySize=auto;html=1;exitX=0.5;exitY=0;exitDx=0;exitDy=0;entryX=0.25;entryY=1;entryDx=0;entryDy=0;" edge="1" parent="1" source="AAj_URhUIHbUfAL2eGkG-12" target="AAj_URhUIHbUfAL2eGkG-2">
          <mxGeometry relative="1" as="geometry" />
        </mxCell>
        <mxCell id="AAj_URhUIHbUfAL2eGkG-12" value="Frontend - Chat" style="ellipse;whiteSpace=wrap;html=1;" vertex="1" parent="1">
          <mxGeometry x="190" y="710" width="120" height="80" as="geometry" />
        </mxCell>
        <mxCell id="AAj_URhUIHbUfAL2eGkG-15" style="edgeStyle=orthogonalEdgeStyle;rounded=0;orthogonalLoop=1;jettySize=auto;html=1;exitX=0.5;exitY=0;exitDx=0;exitDy=0;entryX=0.75;entryY=1;entryDx=0;entryDy=0;" edge="1" parent="1" source="AAj_URhUIHbUfAL2eGkG-13" target="AAj_URhUIHbUfAL2eGkG-2">
          <mxGeometry relative="1" as="geometry" />
        </mxCell>
        <mxCell id="AAj_URhUIHbUfAL2eGkG-13" value="Frontend - Admin" style="ellipse;whiteSpace=wrap;html=1;" vertex="1" parent="1">
          <mxGeometry x="354" y="710" width="120" height="80" as="geometry" />
        </mxCell>
      </root>
    </mxGraphModel>
  </diagram>
</mxfile>
